# Blender 4.5.2 LTS
# www.blender.org
mtllib glases.mtl
o Cube.008
v 0.265004 1.696215 -0.260644
v 0.262605 1.707494 -0.260644
v 0.017119 1.707497 -0.260644
v 0.014719 1.696339 -0.260643
v 0.269944 1.708379 -0.261346
v 0.272338 1.697099 -0.261346
v 0.275634 1.721038 0.127453
v 0.277803 1.709758 0.128465
v -0.265004 1.696215 -0.260644
v -0.262605 1.707494 -0.260644
v -0.017119 1.707497 -0.260644
v -0.014719 1.696339 -0.260643
v -0.269944 1.708379 -0.261346
v -0.272338 1.697099 -0.261346
v -0.275634 1.721038 0.127453
v -0.277803 1.709758 0.128465
vn -0.0929 -0.0197 -0.9955
vn 0.0102 0.0754 -0.9971
vn 0.0590 0.0481 -0.9971
vn 0.0658 0.0382 -0.9971
vn 0.0929 -0.0197 -0.9955
vn 0.9805 0.1961 -0.0140
vn 0.9513 0.2104 -0.2252
vn 0.9506 0.2123 -0.2265
vn -0.9822 0.1879 -0.0062
vn -0.9257 0.3599 -0.1165
vn -0.9822 0.1878 -0.0061
vn -0.0681 0.0340 -0.9971
vn -0.0658 0.0382 -0.9971
vn 0.0761 -0.0013 -0.9971
vn 0.9822 0.1879 -0.0062
vn 0.9822 0.1878 -0.0061
vn 0.9257 0.3599 -0.1166
vn -0.9805 0.1961 -0.0140
vn -0.9506 0.2123 -0.2265
vn -0.9513 0.2104 -0.2252
vt 0.023438 0.992188
s 0
usemtl Endesga
f 1/1/1 5/1/1 6/1/1
f 12/1/2 3/1/3 4/1/4
f 13/1/5 9/1/5 14/1/5
f 7/1/6 6/1/7 5/1/8
f 15/1/9 14/1/10 16/1/11
f 1/1/1 2/1/1 5/1/1
f 12/1/12 11/1/13 3/1/14
f 13/1/5 10/1/5 9/1/5
f 7/1/15 8/1/16 6/1/17
f 15/1/18 13/1/19 14/1/20
o Cube.007
v 0.139861 1.557962 -0.259440
v 0.164275 1.560366 -0.259440
v 0.187746 1.567486 -0.259440
v 0.209382 1.579049 -0.259440
v 0.228347 1.594612 -0.259440
v 0.243911 1.613575 -0.259440
v 0.255476 1.635211 -0.259440
v 0.262598 1.658689 -0.259440
v 0.265004 1.696215 -0.259439
v 0.262605 1.707494 -0.259439
v 0.255476 1.730995 -0.259440
v 0.243911 1.752631 -0.259440
v 0.228347 1.771595 -0.259440
v 0.209382 1.787157 -0.259440
v 0.187746 1.798721 -0.259440
v 0.164275 1.805840 -0.259440
v 0.139861 1.808245 -0.259440
v 0.115448 1.805840 -0.259440
v 0.091967 1.798717 -0.259440
v 0.070332 1.787152 -0.259440
v 0.051370 1.771588 -0.259440
v 0.035808 1.752626 -0.259440
v 0.024245 1.730991 -0.259440
v 0.017119 1.707497 -0.259440
v 0.014719 1.696339 -0.259438
v 0.017125 1.658689 -0.259440
v 0.024245 1.635216 -0.259440
v 0.035808 1.613581 -0.259440
v 0.051370 1.594618 -0.259440
v 0.070332 1.579055 -0.259440
v 0.091967 1.567490 -0.259440
v 0.115448 1.560366 -0.259440
v -0.139861 1.557962 -0.259440
v -0.164275 1.560366 -0.259440
v -0.187746 1.567486 -0.259440
v -0.209382 1.579049 -0.259440
v -0.228347 1.594612 -0.259440
v -0.243911 1.613575 -0.259440
v -0.255476 1.635211 -0.259440
v -0.262598 1.658689 -0.259440
v -0.265004 1.696215 -0.259439
v -0.262605 1.707494 -0.259439
v -0.255476 1.730995 -0.259440
v -0.243911 1.752631 -0.259440
v -0.228347 1.771595 -0.259440
v -0.209382 1.787157 -0.259440
v -0.187746 1.798721 -0.259440
v -0.164275 1.805840 -0.259440
v -0.139861 1.808245 -0.259440
v -0.115448 1.805840 -0.259440
v -0.091967 1.798717 -0.259440
v -0.070332 1.787152 -0.259440
v -0.051370 1.771588 -0.259440
v -0.035808 1.752626 -0.259440
v -0.024245 1.730991 -0.259440
v -0.017119 1.707497 -0.259440
v -0.014719 1.696339 -0.259438
v -0.017125 1.658689 -0.259440
v -0.024245 1.635216 -0.259440
v -0.035808 1.613581 -0.259440
v -0.051370 1.594618 -0.259440
v -0.070332 1.579055 -0.259440
v -0.091967 1.567490 -0.259440
v -0.115448 1.560366 -0.259440
vn -0.0000 -0.0000 -1.0000
vn 0.0002 -0.0001 -1.0000
vn -0.0001 -0.0000 -1.0000
vn 0.0005 -0.0000 -1.0000
vn 0.0002 0.0001 -1.0000
vn 0.0010 -0.0003 -1.0000
vn 0.0006 0.0002 -1.0000
vn -0.0002 -0.0000 -1.0000
vn 0.0001 -0.0000 -1.0000
vt 0.132564 0.976612
s 0
usemtl Endesga
f 62/2/21 70/2/21 78/2/21
f 35/2/21 27/2/21 19/2/21
f 78/2/21 79/2/21 80/2/21
f 80/2/21 49/2/21 50/2/21
f 50/2/21 51/2/21 52/2/21
f 52/2/21 53/2/21 54/2/21
f 54/2/21 55/2/21 56/2/21
f 56/2/21 57/2/21 58/2/21
f 58/2/22 59/2/22 60/2/22
f 60/2/21 61/2/21 62/2/21
f 62/2/21 63/2/21 64/2/21
f 64/2/21 65/2/21 66/2/21
f 66/2/21 67/2/21 68/2/21
f 68/2/21 69/2/21 70/2/21
f 70/2/23 71/2/23 72/2/23
f 72/2/24 73/2/24 74/2/24
f 74/2/21 75/2/21 76/2/21
f 76/2/21 77/2/21 78/2/21
f 78/2/21 80/2/21 50/2/21
f 50/2/21 52/2/21 54/2/21
f 54/2/21 56/2/21 58/2/21
f 58/2/21 60/2/21 62/2/21
f 62/2/21 64/2/21 66/2/21
f 66/2/21 68/2/21 70/2/21
f 70/2/21 72/2/21 74/2/21
f 74/2/21 76/2/21 78/2/21
f 78/2/21 50/2/21 54/2/21
f 54/2/21 58/2/21 62/2/21
f 62/2/21 66/2/21 70/2/21
f 70/2/21 74/2/21 78/2/21
f 78/2/21 54/2/21 62/2/21
f 19/2/21 18/2/21 17/2/21
f 17/2/21 48/2/21 47/2/21
f 47/2/21 46/2/21 45/2/21
f 45/2/21 44/2/21 43/2/21
f 43/2/25 42/2/25 41/2/25
f 41/2/26 40/2/26 39/2/26
f 39/2/21 38/2/21 37/2/21
f 37/2/21 36/2/21 35/2/21
f 35/2/21 34/2/21 33/2/21
f 33/2/21 32/2/21 31/2/21
f 31/2/21 30/2/21 29/2/21
f 29/2/21 28/2/21 27/2/21
f 27/2/27 26/2/27 25/2/27
f 25/2/23 24/2/23 23/2/23
f 23/2/21 22/2/21 21/2/21
f 21/2/21 20/2/21 19/2/21
f 19/2/21 17/2/21 47/2/21
f 47/2/21 45/2/21 43/2/21
f 43/2/28 41/2/28 39/2/28
f 39/2/21 37/2/21 35/2/21
f 35/2/21 33/2/21 31/2/21
f 31/2/21 29/2/21 27/2/21
f 27/2/29 25/2/29 23/2/29
f 23/2/21 21/2/21 19/2/21
f 19/2/21 47/2/21 43/2/21
f 43/2/21 39/2/21 35/2/21
f 35/2/21 31/2/21 27/2/21
f 27/2/21 23/2/21 19/2/21
f 19/2/21 43/2/21 35/2/21
o Cube.009
v 0.139861 1.557962 -0.260645
v 0.164275 1.560366 -0.260645
v 0.187746 1.567486 -0.260645
v 0.209382 1.579049 -0.260645
v 0.228347 1.594612 -0.260645
v 0.243911 1.613575 -0.260645
v 0.255476 1.635211 -0.260645
v 0.262598 1.658689 -0.260645
v 0.265004 1.696215 -0.260644
v 0.262605 1.707494 -0.260644
v 0.255476 1.730995 -0.260645
v 0.243911 1.752631 -0.260645
v 0.228347 1.771595 -0.260645
v 0.209382 1.787157 -0.260645
v 0.187746 1.798721 -0.260645
v 0.164275 1.805840 -0.260645
v 0.139861 1.808245 -0.260645
v 0.115448 1.805840 -0.260645
v 0.091967 1.798717 -0.260645
v 0.070332 1.787152 -0.260645
v 0.051370 1.771588 -0.260645
v 0.035808 1.752626 -0.260645
v 0.024245 1.730991 -0.260645
v 0.017119 1.707497 -0.260644
v 0.014719 1.696339 -0.260643
v 0.017125 1.658689 -0.260645
v 0.024245 1.635216 -0.260645
v 0.035808 1.613581 -0.260645
v 0.051370 1.594618 -0.260645
v 0.070332 1.579055 -0.260645
v 0.091967 1.567490 -0.260645
v 0.115448 1.560366 -0.260645
v -0.139861 1.557962 -0.260645
v -0.164275 1.560366 -0.260645
v -0.187746 1.567486 -0.260645
v -0.209382 1.579049 -0.260645
v -0.228347 1.594612 -0.260645
v -0.243911 1.613575 -0.260645
v -0.255476 1.635211 -0.260645
v -0.262598 1.658689 -0.260645
v -0.265004 1.696215 -0.260644
v -0.262605 1.707494 -0.260644
v -0.255476 1.730995 -0.260645
v -0.243911 1.752631 -0.260645
v -0.228347 1.771595 -0.260645
v -0.209382 1.787157 -0.260645
v -0.187746 1.798721 -0.260645
v -0.164275 1.805840 -0.260645
v -0.139861 1.808245 -0.260645
v -0.115448 1.805840 -0.260645
v -0.091967 1.798717 -0.260645
v -0.070332 1.787152 -0.260645
v -0.051370 1.771588 -0.260645
v -0.035808 1.752626 -0.260645
v -0.024245 1.730991 -0.260645
v -0.017119 1.707497 -0.260644
v -0.014719 1.696339 -0.260643
v -0.017125 1.658689 -0.260645
v -0.024245 1.635216 -0.260645
v -0.035808 1.613581 -0.260645
v -0.051370 1.594618 -0.260645
v -0.070332 1.579055 -0.260645
v -0.091967 1.567490 -0.260645
v -0.115448 1.560366 -0.260645
vn -0.0000 -0.0000 -1.0000
vn 0.0002 -0.0001 -1.0000
vn -0.0001 -0.0000 -1.0000
vn 0.0005 -0.0000 -1.0000
vn 0.0002 0.0001 -1.0000
vn 0.0010 -0.0003 -1.0000
vn 0.0006 0.0002 -1.0000
vn -0.0002 -0.0000 -1.0000
vn 0.0001 -0.0000 -1.0000
vt 0.148912 0.612170
vt 0.148912 0.986364
vt 0.148912 0.391799
vt 0.148912 0.704208
vt 0.148912 0.955730
vt 0.148912 0.299720
vt 0.148912 0.299416
vt 0.148912 0.214793
vt 0.148912 0.141230
vt 0.148912 0.081529
vt 0.148912 0.037993
vt 0.148912 0.012275
vt 0.148912 0.005376
vt 0.148912 0.017561
vt 0.148912 0.048365
vt 0.148912 0.096604
vt 0.148912 0.198211
vt 0.148912 0.237271
vt 0.148912 0.324473
vt 0.148912 0.418407
vt 0.148912 0.515549
vt 0.148912 0.704556
vt 0.148912 0.789138
vt 0.148912 0.862701
vt 0.148912 0.922402
vt 0.148912 0.965954
vt 0.148912 0.991663
vt 0.148912 0.998554
vt 0.148912 0.955558
vt 0.148912 0.907283
vt 0.148912 0.881668
vt 0.148912 0.766572
vt 0.148912 0.679475
vt 0.148912 0.585551
vt 0.148912 0.488416
vt 0.148912 0.215103
vt 0.148912 0.141494
vt 0.148912 0.081738
vt 0.148912 0.038123
vt 0.148912 0.012347
vt 0.148912 0.005386
vt 0.148912 0.017507
vt 0.148912 0.048245
vt 0.148912 0.096417
vt 0.148912 0.198300
vt 0.148912 0.236997
vt 0.148912 0.324141
vt 0.148912 0.418047
vt 0.148912 0.515177
vt 0.148912 0.611802
vt 0.148912 0.788865
vt 0.148912 0.862474
vt 0.148912 0.922230
vt 0.148912 0.965829
vt 0.148912 0.991614
vt 0.148912 0.998582
vt 0.148912 0.986467
vt 0.148912 0.907504
vt 0.148912 0.881566
vt 0.148912 0.766892
vt 0.148912 0.679809
vt 0.148912 0.585895
vt 0.148912 0.488757
vt 0.148912 0.392127
s 0
usemtl Endesga
f 126/3/30 134/4/30 142/5/30
f 99/6/30 91/7/30 83/8/30
f 142/5/30 143/9/30 144/10/30
f 144/10/30 113/11/30 114/12/30
f 114/12/30 115/13/30 116/14/30
f 116/14/30 117/15/30 118/16/30
f 118/16/30 119/17/30 120/18/30
f 120/18/30 121/19/30 122/20/30
f 122/20/31 123/21/31 124/22/31
f 124/22/30 125/23/30 126/3/30
f 126/3/30 127/24/30 128/25/30
f 128/25/30 129/26/30 130/27/30
f 130/27/30 131/28/30 132/29/30
f 132/29/30 133/30/30 134/4/30
f 134/4/32 135/31/32 136/32/32
f 136/32/33 137/33/33 138/34/33
f 138/34/30 139/35/30 140/36/30
f 140/36/30 141/37/30 142/5/30
f 142/5/30 144/10/30 114/12/30
f 114/12/30 116/14/30 118/16/30
f 118/16/30 120/18/30 122/20/30
f 122/20/30 124/22/30 126/3/30
f 126/3/30 128/25/30 130/27/30
f 130/27/30 132/29/30 134/4/30
f 134/4/30 136/32/30 138/34/30
f 138/34/30 140/36/30 142/5/30
f 142/5/30 114/12/30 118/16/30
f 118/16/30 122/20/30 126/3/30
f 126/3/30 130/27/30 134/4/30
f 134/4/30 138/34/30 142/5/30
f 142/5/30 118/16/30 126/3/30
f 83/8/30 82/38/30 81/39/30
f 81/39/30 112/40/30 111/41/30
f 111/41/30 110/42/30 109/43/30
f 109/43/30 108/44/30 107/45/30
f 107/45/34 106/46/34 105/47/34
f 105/47/35 104/48/35 103/49/35
f 103/49/30 102/50/30 101/51/30
f 101/51/30 100/52/30 99/6/30
f 99/6/30 98/53/30 97/54/30
f 97/54/30 96/55/30 95/56/30
f 95/56/30 94/57/30 93/58/30
f 93/58/30 92/59/30 91/7/30
f 91/7/36 90/60/36 89/61/36
f 89/61/32 88/62/32 87/63/32
f 87/63/30 86/64/30 85/65/30
f 85/65/30 84/66/30 83/8/30
f 83/8/30 81/39/30 111/41/30
f 111/41/30 109/43/30 107/45/30
f 107/45/37 105/47/37 103/49/37
f 103/49/30 101/51/30 99/6/30
f 99/6/30 97/54/30 95/56/30
f 95/56/30 93/58/30 91/7/30
f 91/7/38 89/61/38 87/63/38
f 87/63/30 85/65/30 83/8/30
f 83/8/30 111/41/30 107/45/30
f 107/45/30 103/49/30 99/6/30
f 99/6/30 95/56/30 91/7/30
f 91/7/30 87/63/30 83/8/30
f 83/8/30 107/45/30 99/6/30
