# Blender 4.5.2 LTS
# www.blender.org
mtllib front1.mtl
o Cube.001
v 0.000000 0.924368 -0.137522
v 0.065905 0.959401 -0.136106
v -0.040032 1.407173 -0.128962
v 0.000000 1.407173 -0.131715
v -0.065905 0.959401 -0.136106
v 0.000000 0.944436 -0.141569
v -0.075327 1.487351 -0.130204
v 0.000000 1.512421 -0.146489
v 0.040032 1.407173 -0.128962
v 0.075327 1.487351 -0.130204
vn -0.1251 -0.1961 -0.9726
vn 0.1251 -0.1961 -0.9726
vn -0.1382 -0.1113 -0.9841
vn -0.1063 0.0225 -0.9941
vn -0.0573 0.0182 -0.9982
vn -0.0581 0.0160 -0.9982
vn -0.1076 0.0209 -0.9940
vn 0.1382 -0.1113 -0.9841
vn 0.1063 0.0225 -0.9941
vn 0.1076 0.0209 -0.9940
vn 0.0581 0.0160 -0.9982
vn 0.0573 0.0182 -0.9982
vt 0.054688 0.914062
vt 0.039062 0.914062
vt 0.070312 0.914062
s 0
usemtl Endesga
f 5/1/1 6/1/1 1/1/1
f 2/2/2 1/2/2 6/2/2
f 4/1/3 3/1/3 7/1/3 8/1/3
f 4/3/4 6/3/5 5/3/6 3/3/7
f 4/2/8 8/2/8 10/2/8 9/2/8
f 4/1/9 9/1/10 2/1/11 6/1/12
o Cube.002
v -0.173291 1.497117 -0.134901
v -0.052967 1.438985 -0.143429
v -0.151376 1.511984 -0.140616
v -0.028356 1.497628 -0.158519
v -0.151376 1.511984 -0.044018
v -0.173291 1.497117 -0.038304
v 0.173291 1.497117 -0.134901
v 0.052967 1.438985 -0.143429
v 0.151376 1.511984 -0.140616
v 0.028356 1.497628 -0.158519
v 0.151376 1.511984 -0.044018
v 0.173291 1.497117 -0.038304
vn -0.1577 -0.1752 -0.9718
vn -0.5614 0.8275 -0.0000
vn 0.1577 -0.1752 -0.9718
vn 0.5614 0.8275 -0.0000
vt 0.117188 0.992188
s 0
usemtl Endesga
f 12/4/13 11/4/13 13/4/13 14/4/13
f 13/4/14 11/4/14 16/4/14 15/4/14
f 18/4/15 20/4/15 19/4/15 17/4/15
f 19/4/16 21/4/16 22/4/16 17/4/16
