# Blender 4.5.2 LTS
# www.blender.org
mtllib tie.mtl
o Cube.001
v 0.000000 0.924368 -0.137522
v 0.065905 0.959401 -0.136106
v -0.065905 0.959401 -0.136106
v 0.000000 0.944436 -0.141569
v 0.060730 1.042969 -0.134677
v 0.000000 1.076323 -0.139598
v -0.060730 1.042969 -0.134677
vn -0.1251 -0.1961 -0.9726
vn 0.1251 -0.1961 -0.9726
vn -0.1133 0.0041 -0.9936
vn -0.0672 0.0152 -0.9976
vn -0.0679 0.0130 -0.9976
vn -0.0862 0.0009 -0.9963
vn 0.0886 0.0345 -0.9955
vn 0.1169 0.0126 -0.9931
vn 0.0679 0.0130 -0.9976
vn 0.0672 0.0152 -0.9976
vt 0.054688 0.914062
vt 0.039062 0.914062
vt 0.070312 0.914062
s 0
usemtl Endesga
f 3/1/1 4/1/1 1/1/1
f 2/2/2 1/2/2 4/2/2
f 6/3/3 4/3/4 3/3/5 7/3/6
f 6/1/7 5/1/8 2/1/9 4/1/10
o Cube.003
v -0.040032 1.407173 -0.128962
v 0.000000 1.407173 -0.131715
v -0.075327 1.487351 -0.130204
v -0.045206 1.316122 -0.130391
v 0.000000 1.316122 -0.133686
v 0.045206 1.316122 -0.130391
v 0.040032 1.407173 -0.128962
v 0.075327 1.487351 -0.130204
v 0.000000 1.512421 -0.146489
vn -0.1027 0.0224 -0.9945
vn -0.0689 0.0527 -0.9962
vn -0.0538 0.0196 -0.9984
vn -0.1040 0.0208 -0.9944
vn -0.1382 -0.1113 -0.9841
vn 0.1027 0.0224 -0.9945
vn 0.1040 0.0208 -0.9944
vn 0.0703 -0.0127 -0.9974
vn 0.0535 0.0194 -0.9984
vn 0.1382 -0.1113 -0.9841
vt 0.070312 0.914062
vt 0.054688 0.914062
vt 0.039062 0.914062
s 0
usemtl Endesga
f 9/4/11 12/4/12 11/4/13 8/4/14
f 9/5/15 8/5/15 10/5/15 16/5/15
f 9/5/16 14/5/17 13/5/18 12/5/19
f 9/6/20 16/6/20 15/6/20 14/6/20
o Cube.004
v -0.060730 1.042969 -0.134677
v -0.055556 1.134020 -0.133249
v 0.000000 1.042969 -0.139598
v 0.000000 1.167374 -0.137627
v 0.060730 1.042969 -0.134677
v 0.055556 1.134020 -0.133249
vn -0.1132 0.0030 -0.9936
vn -0.0829 0.0497 -0.9953
vn -0.0678 0.0167 -0.9976
vn -0.0866 0.0009 -0.9962
vn 0.0895 0.0344 -0.9954
vn 0.1174 0.0121 -0.9930
vn 0.0843 -0.0156 -0.9963
vn 0.0676 0.0165 -0.9976
vt 0.070312 0.914062
vt 0.070312 0.914062
vt 0.054688 0.914062
vt 0.054688 0.914062
s 0
usemtl Endesga
f 20/7/21 19/8/22 17/8/23 18/8/24
f 20/9/25 22/10/26 21/10/27 19/10/28
o Cube.005
v -0.055556 1.134020 -0.133249
v -0.050381 1.225071 -0.131820
v 0.000000 1.134020 -0.137627
v 0.055556 1.134020 -0.133249
v 0.000000 1.258425 -0.135657
v 0.050381 1.225071 -0.131820
vn -0.1107 0.0017 -0.9939
vn -0.0810 0.0497 -0.9955
vn -0.0659 0.0167 -0.9977
vn -0.0847 0.0008 -0.9964
vn 0.0881 0.0342 -0.9955
vn 0.1154 0.0116 -0.9933
vn 0.0824 -0.0157 -0.9965
vn 0.0657 0.0165 -0.9977
vt 0.070312 0.914062
vt 0.070312 0.914062
vt 0.054688 0.914062
vt 0.054688 0.914062
s 0
usemtl Endesga
f 27/11/29 25/12/30 23/11/31 24/12/32
f 27/13/33 28/14/34 26/13/35 25/14/36
o Cube.006
v -0.050381 1.225071 -0.131820
v -0.045206 1.316122 -0.130391
v 0.000000 1.225071 -0.135657
v 0.050381 1.225071 -0.131820
v 0.000000 1.349476 -0.133686
v 0.045206 1.316122 -0.130391
vn -0.1075 0.0003 -0.9942
vn -0.0787 0.0496 -0.9957
vn -0.0635 0.0166 -0.9978
vn -0.0823 0.0008 -0.9966
vn 0.0863 0.0340 -0.9957
vn 0.1129 0.0110 -0.9935
vn 0.0800 -0.0157 -0.9967
vn 0.0633 0.0164 -0.9979
vt 0.070312 0.914062
vt 0.070312 0.914062
vt 0.054688 0.914062
vt 0.054688 0.914062
s 0
usemtl Endesga
f 33/15/37 31/15/38 29/16/39 30/15/40
f 33/17/41 34/17/42 32/18/43 31/17/44
